<mxfile host="app.diagrams.net" modified="2022-04-11T00:05:31.513Z" agent="5.0 (Windows NT 10.0; Win64; x64) AppleWebKit/537.36 (KHTML, like Gecko) Chrome/100.0.4896.75 Safari/537.36" etag="ZO9Qd18JoBq75zq1vyTA" version="17.1.3" type="github">
  <diagram id="m8PmNggOXjhAJn4Uz82K" name="Page-1">
    <mxGraphModel dx="2714" dy="947" grid="1" gridSize="10" guides="1" tooltips="1" connect="1" arrows="1" fold="1" page="1" pageScale="1" pageWidth="827" pageHeight="1169" math="0" shadow="0">
      <root>
        <mxCell id="0" />
        <mxCell id="1" parent="0" />
        <mxCell id="86SzGhm7amYP-6trFhJ--2" style="edgeStyle=orthogonalEdgeStyle;rounded=0;orthogonalLoop=1;jettySize=auto;html=1;exitX=0.5;exitY=1;exitDx=0;exitDy=0;exitPerimeter=0;" parent="1" source="86SzGhm7amYP-6trFhJ--1" target="86SzGhm7amYP-6trFhJ--3" edge="1">
          <mxGeometry relative="1" as="geometry">
            <mxPoint x="170" y="200" as="targetPoint" />
          </mxGeometry>
        </mxCell>
        <mxCell id="86SzGhm7amYP-6trFhJ--1" value="Every 3ms" style="strokeWidth=2;html=1;shape=mxgraph.flowchart.terminator;whiteSpace=wrap;" parent="1" vertex="1">
          <mxGeometry x="120" y="80" width="100" height="60" as="geometry" />
        </mxCell>
        <mxCell id="86SzGhm7amYP-6trFhJ--7" style="edgeStyle=orthogonalEdgeStyle;rounded=0;orthogonalLoop=1;jettySize=auto;html=1;exitX=0.5;exitY=1;exitDx=0;exitDy=0;entryX=0.5;entryY=0;entryDx=0;entryDy=0;" parent="1" source="86SzGhm7amYP-6trFhJ--3" target="86SzGhm7amYP-6trFhJ--6" edge="1">
          <mxGeometry relative="1" as="geometry" />
        </mxCell>
        <mxCell id="86SzGhm7amYP-6trFhJ--12" style="edgeStyle=orthogonalEdgeStyle;rounded=0;orthogonalLoop=1;jettySize=auto;html=1;exitX=1;exitY=0.5;exitDx=0;exitDy=0;entryX=0.5;entryY=0;entryDx=0;entryDy=0;" parent="1" source="86SzGhm7amYP-6trFhJ--3" target="86SzGhm7amYP-6trFhJ--11" edge="1">
          <mxGeometry relative="1" as="geometry" />
        </mxCell>
        <mxCell id="86SzGhm7amYP-6trFhJ--3" value="Control mode ==manual" style="rhombus;whiteSpace=wrap;html=1;" parent="1" vertex="1">
          <mxGeometry x="80" y="180" width="180" height="50" as="geometry" />
        </mxCell>
        <mxCell id="86SzGhm7amYP-6trFhJ--28" style="edgeStyle=orthogonalEdgeStyle;rounded=0;orthogonalLoop=1;jettySize=auto;html=1;exitX=0.5;exitY=1;exitDx=0;exitDy=0;entryX=0.5;entryY=0;entryDx=0;entryDy=0;entryPerimeter=0;" parent="1" source="86SzGhm7amYP-6trFhJ--5" target="86SzGhm7amYP-6trFhJ--26" edge="1">
          <mxGeometry relative="1" as="geometry">
            <mxPoint x="169.5882352941178" y="610" as="targetPoint" />
          </mxGeometry>
        </mxCell>
        <mxCell id="86SzGhm7amYP-6trFhJ--5" value="Send Target Position to MAROS&amp;nbsp;" style="rounded=1;whiteSpace=wrap;html=1;" parent="1" vertex="1">
          <mxGeometry x="109.99714285714289" y="330" width="120" height="60" as="geometry" />
        </mxCell>
        <mxCell id="86SzGhm7amYP-6trFhJ--8" style="edgeStyle=orthogonalEdgeStyle;rounded=0;orthogonalLoop=1;jettySize=auto;html=1;exitX=0.5;exitY=1;exitDx=0;exitDy=0;entryX=0.5;entryY=0;entryDx=0;entryDy=0;" parent="1" source="86SzGhm7amYP-6trFhJ--6" target="86SzGhm7amYP-6trFhJ--5" edge="1">
          <mxGeometry relative="1" as="geometry" />
        </mxCell>
        <mxCell id="86SzGhm7amYP-6trFhJ--10" style="edgeStyle=orthogonalEdgeStyle;rounded=0;orthogonalLoop=1;jettySize=auto;html=1;exitX=1;exitY=0.5;exitDx=0;exitDy=0;entryX=0.5;entryY=0;entryDx=0;entryDy=0;" parent="1" source="86SzGhm7amYP-6trFhJ--6" target="86SzGhm7amYP-6trFhJ--9" edge="1">
          <mxGeometry relative="1" as="geometry" />
        </mxCell>
        <mxCell id="86SzGhm7amYP-6trFhJ--6" value="Has user input?" style="rhombus;whiteSpace=wrap;html=1;" parent="1" vertex="1">
          <mxGeometry x="80" y="250" width="180" height="50" as="geometry" />
        </mxCell>
        <mxCell id="86SzGhm7amYP-6trFhJ--27" style="edgeStyle=orthogonalEdgeStyle;rounded=0;orthogonalLoop=1;jettySize=auto;html=1;exitX=0.5;exitY=1;exitDx=0;exitDy=0;entryX=0.5;entryY=0;entryDx=0;entryDy=0;entryPerimeter=0;" parent="1" source="86SzGhm7amYP-6trFhJ--9" target="86SzGhm7amYP-6trFhJ--26" edge="1">
          <mxGeometry relative="1" as="geometry" />
        </mxCell>
        <mxCell id="86SzGhm7amYP-6trFhJ--9" value="Send Current Position to MAROS&amp;nbsp;" style="rounded=1;whiteSpace=wrap;html=1;" parent="1" vertex="1">
          <mxGeometry x="259.9971428571429" y="330" width="120" height="60" as="geometry" />
        </mxCell>
        <mxCell id="86SzGhm7amYP-6trFhJ--14" style="edgeStyle=orthogonalEdgeStyle;rounded=0;orthogonalLoop=1;jettySize=auto;html=1;exitX=0.5;exitY=1;exitDx=0;exitDy=0;entryX=0.5;entryY=0;entryDx=0;entryDy=0;" parent="1" source="86SzGhm7amYP-6trFhJ--11" target="86SzGhm7amYP-6trFhJ--13" edge="1">
          <mxGeometry relative="1" as="geometry" />
        </mxCell>
        <mxCell id="86SzGhm7amYP-6trFhJ--72" style="edgeStyle=orthogonalEdgeStyle;rounded=0;orthogonalLoop=1;jettySize=auto;html=1;exitX=1;exitY=0.5;exitDx=0;exitDy=0;entryX=1;entryY=0.5;entryDx=0;entryDy=0;" parent="1" source="86SzGhm7amYP-6trFhJ--11" target="86SzGhm7amYP-6trFhJ--73" edge="1">
          <mxGeometry relative="1" as="geometry">
            <mxPoint x="690" y="640" as="targetPoint" />
            <Array as="points">
              <mxPoint x="690" y="255" />
              <mxPoint x="690" y="680" />
            </Array>
          </mxGeometry>
        </mxCell>
        <mxCell id="86SzGhm7amYP-6trFhJ--11" value="Control mode ==Auto" style="rhombus;whiteSpace=wrap;html=1;" parent="1" vertex="1">
          <mxGeometry x="390" y="230" width="180" height="50" as="geometry" />
        </mxCell>
        <mxCell id="86SzGhm7amYP-6trFhJ--16" style="edgeStyle=orthogonalEdgeStyle;rounded=0;orthogonalLoop=1;jettySize=auto;html=1;exitX=0.5;exitY=1;exitDx=0;exitDy=0;entryX=0.5;entryY=0;entryDx=0;entryDy=0;" parent="1" source="86SzGhm7amYP-6trFhJ--13" target="86SzGhm7amYP-6trFhJ--15" edge="1">
          <mxGeometry relative="1" as="geometry" />
        </mxCell>
        <mxCell id="86SzGhm7amYP-6trFhJ--20" style="edgeStyle=orthogonalEdgeStyle;rounded=0;orthogonalLoop=1;jettySize=auto;html=1;exitX=1;exitY=0.5;exitDx=0;exitDy=0;entryX=0.5;entryY=0;entryDx=0;entryDy=0;" parent="1" source="86SzGhm7amYP-6trFhJ--13" target="86SzGhm7amYP-6trFhJ--17" edge="1">
          <mxGeometry relative="1" as="geometry" />
        </mxCell>
        <mxCell id="86SzGhm7amYP-6trFhJ--13" value="Has user input?" style="rhombus;whiteSpace=wrap;html=1;" parent="1" vertex="1">
          <mxGeometry x="390" y="300" width="180" height="50" as="geometry" />
        </mxCell>
        <mxCell id="86SzGhm7amYP-6trFhJ--19" style="edgeStyle=orthogonalEdgeStyle;rounded=0;orthogonalLoop=1;jettySize=auto;html=1;exitX=0.5;exitY=1;exitDx=0;exitDy=0;entryX=0.5;entryY=0;entryDx=0;entryDy=0;" parent="1" source="86SzGhm7amYP-6trFhJ--15" target="86SzGhm7amYP-6trFhJ--18" edge="1">
          <mxGeometry relative="1" as="geometry" />
        </mxCell>
        <mxCell id="86SzGhm7amYP-6trFhJ--15" value="Send Target Position to Vision Node&amp;nbsp;" style="rounded=1;whiteSpace=wrap;html=1;" parent="1" vertex="1">
          <mxGeometry x="419.9971428571429" y="380" width="120" height="60" as="geometry" />
        </mxCell>
        <mxCell id="86SzGhm7amYP-6trFhJ--21" style="edgeStyle=orthogonalEdgeStyle;rounded=0;orthogonalLoop=1;jettySize=auto;html=1;exitX=0.5;exitY=1;exitDx=0;exitDy=0;" parent="1" source="86SzGhm7amYP-6trFhJ--17" target="86SzGhm7amYP-6trFhJ--18" edge="1">
          <mxGeometry relative="1" as="geometry">
            <Array as="points">
              <mxPoint x="620" y="450" />
              <mxPoint x="480" y="450" />
            </Array>
          </mxGeometry>
        </mxCell>
        <mxCell id="86SzGhm7amYP-6trFhJ--17" value="Send Current Position to Vision Node&amp;nbsp;" style="rounded=1;whiteSpace=wrap;html=1;" parent="1" vertex="1">
          <mxGeometry x="559.9971428571429" y="380" width="120" height="60" as="geometry" />
        </mxCell>
        <mxCell id="86SzGhm7amYP-6trFhJ--24" style="edgeStyle=orthogonalEdgeStyle;rounded=0;orthogonalLoop=1;jettySize=auto;html=1;exitX=0.5;exitY=1;exitDx=0;exitDy=0;entryX=0.5;entryY=0;entryDx=0;entryDy=0;" parent="1" source="86SzGhm7amYP-6trFhJ--18" target="86SzGhm7amYP-6trFhJ--23" edge="1">
          <mxGeometry relative="1" as="geometry" />
        </mxCell>
        <mxCell id="86SzGhm7amYP-6trFhJ--25" style="edgeStyle=orthogonalEdgeStyle;rounded=0;orthogonalLoop=1;jettySize=auto;html=1;exitX=1;exitY=0.5;exitDx=0;exitDy=0;entryX=0.5;entryY=0;entryDx=0;entryDy=0;" parent="1" source="86SzGhm7amYP-6trFhJ--18" target="86SzGhm7amYP-6trFhJ--22" edge="1">
          <mxGeometry relative="1" as="geometry" />
        </mxCell>
        <mxCell id="86SzGhm7amYP-6trFhJ--18" value="Has vision node input?" style="rhombus;whiteSpace=wrap;html=1;" parent="1" vertex="1">
          <mxGeometry x="390" y="470" width="180" height="50" as="geometry" />
        </mxCell>
        <mxCell id="86SzGhm7amYP-6trFhJ--30" style="edgeStyle=orthogonalEdgeStyle;rounded=0;orthogonalLoop=1;jettySize=auto;html=1;exitX=0.5;exitY=1;exitDx=0;exitDy=0;entryX=0.5;entryY=0;entryDx=0;entryDy=0;entryPerimeter=0;" parent="1" source="86SzGhm7amYP-6trFhJ--22" target="86SzGhm7amYP-6trFhJ--26" edge="1">
          <mxGeometry relative="1" as="geometry">
            <Array as="points">
              <mxPoint x="620" y="630" />
              <mxPoint x="170" y="630" />
            </Array>
          </mxGeometry>
        </mxCell>
        <mxCell id="86SzGhm7amYP-6trFhJ--22" value="Send Current Position to MAROS&amp;nbsp;" style="rounded=1;whiteSpace=wrap;html=1;" parent="1" vertex="1">
          <mxGeometry x="559.9971428571429" y="554" width="120" height="60" as="geometry" />
        </mxCell>
        <mxCell id="86SzGhm7amYP-6trFhJ--29" style="edgeStyle=orthogonalEdgeStyle;rounded=0;orthogonalLoop=1;jettySize=auto;html=1;exitX=0.5;exitY=1;exitDx=0;exitDy=0;" parent="1" source="86SzGhm7amYP-6trFhJ--23" target="86SzGhm7amYP-6trFhJ--26" edge="1">
          <mxGeometry relative="1" as="geometry">
            <Array as="points">
              <mxPoint x="480" y="630" />
              <mxPoint x="170" y="630" />
            </Array>
          </mxGeometry>
        </mxCell>
        <mxCell id="86SzGhm7amYP-6trFhJ--23" value="Send vision node input&amp;nbsp;to MAROS&amp;nbsp;" style="rounded=1;whiteSpace=wrap;html=1;" parent="1" vertex="1">
          <mxGeometry x="419.9971428571429" y="554" width="120" height="60" as="geometry" />
        </mxCell>
        <mxCell id="86SzGhm7amYP-6trFhJ--26" value="END" style="strokeWidth=2;html=1;shape=mxgraph.flowchart.terminator;whiteSpace=wrap;" parent="1" vertex="1">
          <mxGeometry x="120" y="650" width="100" height="60" as="geometry" />
        </mxCell>
        <mxCell id="86SzGhm7amYP-6trFhJ--33" style="edgeStyle=orthogonalEdgeStyle;rounded=0;orthogonalLoop=1;jettySize=auto;html=1;exitX=0.5;exitY=1;exitDx=0;exitDy=0;exitPerimeter=0;entryX=0.5;entryY=0;entryDx=0;entryDy=0;" parent="1" source="86SzGhm7amYP-6trFhJ--31" target="86SzGhm7amYP-6trFhJ--32" edge="1">
          <mxGeometry relative="1" as="geometry" />
        </mxCell>
        <mxCell id="86SzGhm7amYP-6trFhJ--31" value="Every 100ms" style="strokeWidth=2;html=1;shape=mxgraph.flowchart.terminator;whiteSpace=wrap;" parent="1" vertex="1">
          <mxGeometry x="735" y="80" width="100" height="60" as="geometry" />
        </mxCell>
        <mxCell id="86SzGhm7amYP-6trFhJ--35" style="edgeStyle=orthogonalEdgeStyle;rounded=0;orthogonalLoop=1;jettySize=auto;html=1;exitX=0.5;exitY=1;exitDx=0;exitDy=0;" parent="1" source="86SzGhm7amYP-6trFhJ--32" target="86SzGhm7amYP-6trFhJ--34" edge="1">
          <mxGeometry relative="1" as="geometry" />
        </mxCell>
        <mxCell id="86SzGhm7amYP-6trFhJ--32" value="Send&amp;nbsp;&lt;span style=&quot;font-size: 12.0pt ; line-height: 150% ; font-family: &amp;#34;times new roman&amp;#34; , serif&quot;&gt;GetDroneState To Offboard Mode&lt;/span&gt;" style="rounded=1;whiteSpace=wrap;html=1;" parent="1" vertex="1">
          <mxGeometry x="700" y="225" width="170" height="60" as="geometry" />
        </mxCell>
        <mxCell id="86SzGhm7amYP-6trFhJ--34" value="END" style="strokeWidth=2;html=1;shape=mxgraph.flowchart.terminator;whiteSpace=wrap;" parent="1" vertex="1">
          <mxGeometry x="735" y="650" width="100" height="60" as="geometry" />
        </mxCell>
        <mxCell id="86SzGhm7amYP-6trFhJ--38" style="edgeStyle=orthogonalEdgeStyle;rounded=0;orthogonalLoop=1;jettySize=auto;html=1;exitX=0.5;exitY=1;exitDx=0;exitDy=0;exitPerimeter=0;entryX=0.5;entryY=0;entryDx=0;entryDy=0;" parent="1" source="86SzGhm7amYP-6trFhJ--36" target="86SzGhm7amYP-6trFhJ--37" edge="1">
          <mxGeometry relative="1" as="geometry" />
        </mxCell>
        <mxCell id="86SzGhm7amYP-6trFhJ--36" value="Every 500ms" style="strokeWidth=2;html=1;shape=mxgraph.flowchart.terminator;whiteSpace=wrap;" parent="1" vertex="1">
          <mxGeometry x="920" y="80" width="100" height="60" as="geometry" />
        </mxCell>
        <mxCell id="86SzGhm7amYP-6trFhJ--40" value="" style="edgeStyle=orthogonalEdgeStyle;rounded=0;orthogonalLoop=1;jettySize=auto;html=1;" parent="1" source="86SzGhm7amYP-6trFhJ--37" target="86SzGhm7amYP-6trFhJ--39" edge="1">
          <mxGeometry relative="1" as="geometry" />
        </mxCell>
        <mxCell id="86SzGhm7amYP-6trFhJ--37" value="Update display Local Position" style="rounded=1;whiteSpace=wrap;html=1;" parent="1" vertex="1">
          <mxGeometry x="885" y="225" width="170" height="60" as="geometry" />
        </mxCell>
        <mxCell id="86SzGhm7amYP-6trFhJ--42" value="" style="edgeStyle=orthogonalEdgeStyle;rounded=0;orthogonalLoop=1;jettySize=auto;html=1;" parent="1" source="86SzGhm7amYP-6trFhJ--39" target="86SzGhm7amYP-6trFhJ--41" edge="1">
          <mxGeometry relative="1" as="geometry" />
        </mxCell>
        <mxCell id="86SzGhm7amYP-6trFhJ--39" value="Update display PX4 Status" style="rounded=1;whiteSpace=wrap;html=1;" parent="1" vertex="1">
          <mxGeometry x="885" y="320" width="170" height="60" as="geometry" />
        </mxCell>
        <mxCell id="86SzGhm7amYP-6trFhJ--44" style="edgeStyle=orthogonalEdgeStyle;rounded=0;orthogonalLoop=1;jettySize=auto;html=1;exitX=0.5;exitY=1;exitDx=0;exitDy=0;entryX=0.5;entryY=0;entryDx=0;entryDy=0;entryPerimeter=0;" parent="1" source="86SzGhm7amYP-6trFhJ--41" target="86SzGhm7amYP-6trFhJ--43" edge="1">
          <mxGeometry relative="1" as="geometry" />
        </mxCell>
        <mxCell id="86SzGhm7amYP-6trFhJ--41" value="Update display Control Mode Status" style="rounded=1;whiteSpace=wrap;html=1;" parent="1" vertex="1">
          <mxGeometry x="885" y="420" width="170" height="60" as="geometry" />
        </mxCell>
        <mxCell id="86SzGhm7amYP-6trFhJ--43" value="END" style="strokeWidth=2;html=1;shape=mxgraph.flowchart.terminator;whiteSpace=wrap;" parent="1" vertex="1">
          <mxGeometry x="920" y="650" width="100" height="60" as="geometry" />
        </mxCell>
        <mxCell id="86SzGhm7amYP-6trFhJ--49" value="" style="edgeStyle=orthogonalEdgeStyle;rounded=0;orthogonalLoop=1;jettySize=auto;html=1;" parent="1" source="86SzGhm7amYP-6trFhJ--45" target="86SzGhm7amYP-6trFhJ--48" edge="1">
          <mxGeometry relative="1" as="geometry" />
        </mxCell>
        <mxCell id="86SzGhm7amYP-6trFhJ--45" value="Start" style="strokeWidth=2;html=1;shape=mxgraph.flowchart.terminator;whiteSpace=wrap;" parent="1" vertex="1">
          <mxGeometry x="-310" y="90" width="100" height="60" as="geometry" />
        </mxCell>
        <mxCell id="86SzGhm7amYP-6trFhJ--51" style="edgeStyle=orthogonalEdgeStyle;rounded=0;orthogonalLoop=1;jettySize=auto;html=1;exitX=0.5;exitY=1;exitDx=0;exitDy=0;entryX=0.5;entryY=0;entryDx=0;entryDy=0;" parent="1" source="86SzGhm7amYP-6trFhJ--48" target="86SzGhm7amYP-6trFhJ--50" edge="1">
          <mxGeometry relative="1" as="geometry" />
        </mxCell>
        <mxCell id="86SzGhm7amYP-6trFhJ--55" style="edgeStyle=orthogonalEdgeStyle;rounded=0;orthogonalLoop=1;jettySize=auto;html=1;exitX=0.5;exitY=1;exitDx=0;exitDy=0;entryX=0.5;entryY=0;entryDx=0;entryDy=0;" parent="1" source="86SzGhm7amYP-6trFhJ--48" target="86SzGhm7amYP-6trFhJ--52" edge="1">
          <mxGeometry relative="1" as="geometry" />
        </mxCell>
        <mxCell id="86SzGhm7amYP-6trFhJ--48" value="Start ROS Node" style="rounded=1;whiteSpace=wrap;html=1;" parent="1" vertex="1">
          <mxGeometry x="-320" y="230" width="120" height="60" as="geometry" />
        </mxCell>
        <mxCell id="86SzGhm7amYP-6trFhJ--59" style="edgeStyle=orthogonalEdgeStyle;rounded=0;orthogonalLoop=1;jettySize=auto;html=1;exitX=0.5;exitY=1;exitDx=0;exitDy=0;entryX=0.5;entryY=0;entryDx=0;entryDy=0;" parent="1" source="86SzGhm7amYP-6trFhJ--50" target="86SzGhm7amYP-6trFhJ--56" edge="1">
          <mxGeometry relative="1" as="geometry" />
        </mxCell>
        <mxCell id="86SzGhm7amYP-6trFhJ--50" value="GUI Has User Input?" style="rhombus;whiteSpace=wrap;html=1;" parent="1" vertex="1">
          <mxGeometry x="-350" y="330" width="180" height="50" as="geometry" />
        </mxCell>
        <mxCell id="86SzGhm7amYP-6trFhJ--67" style="edgeStyle=orthogonalEdgeStyle;rounded=0;orthogonalLoop=1;jettySize=auto;html=1;exitX=1;exitY=0.5;exitDx=0;exitDy=0;entryX=0.5;entryY=0;entryDx=0;entryDy=0;entryPerimeter=0;" parent="1" source="86SzGhm7amYP-6trFhJ--52" target="86SzGhm7amYP-6trFhJ--68" edge="1">
          <mxGeometry relative="1" as="geometry">
            <mxPoint x="-40" y="570" as="targetPoint" />
            <Array as="points">
              <mxPoint x="70" y="355" />
              <mxPoint x="70" y="560" />
              <mxPoint x="-260" y="560" />
            </Array>
          </mxGeometry>
        </mxCell>
        <mxCell id="86SzGhm7amYP-6trFhJ--52" value="ROS Node Running?" style="rhombus;whiteSpace=wrap;html=1;" parent="1" vertex="1">
          <mxGeometry x="-130" y="330" width="180" height="50" as="geometry" />
        </mxCell>
        <mxCell id="86SzGhm7amYP-6trFhJ--62" style="edgeStyle=orthogonalEdgeStyle;rounded=0;orthogonalLoop=1;jettySize=auto;html=1;exitX=0.5;exitY=1;exitDx=0;exitDy=0;" parent="1" source="86SzGhm7amYP-6trFhJ--56" edge="1">
          <mxGeometry relative="1" as="geometry">
            <mxPoint x="-259.7647058823529" y="520" as="targetPoint" />
          </mxGeometry>
        </mxCell>
        <mxCell id="86SzGhm7amYP-6trFhJ--56" value="Update variable according to user input" style="rounded=1;whiteSpace=wrap;html=1;" parent="1" vertex="1">
          <mxGeometry x="-320" y="400" width="120" height="60" as="geometry" />
        </mxCell>
        <mxCell id="86SzGhm7amYP-6trFhJ--61" style="edgeStyle=orthogonalEdgeStyle;rounded=0;orthogonalLoop=1;jettySize=auto;html=1;exitX=1;exitY=0.5;exitDx=0;exitDy=0;entryX=0;entryY=0.5;entryDx=0;entryDy=0;" parent="1" source="86SzGhm7amYP-6trFhJ--50" target="86SzGhm7amYP-6trFhJ--50" edge="1">
          <mxGeometry relative="1" as="geometry">
            <Array as="points">
              <mxPoint x="-160" y="355" />
              <mxPoint x="-160" y="520" />
              <mxPoint x="-370" y="520" />
              <mxPoint x="-370" y="355" />
            </Array>
          </mxGeometry>
        </mxCell>
        <mxCell id="86SzGhm7amYP-6trFhJ--63" style="edgeStyle=orthogonalEdgeStyle;rounded=0;orthogonalLoop=1;jettySize=auto;html=1;exitX=0.5;exitY=1;exitDx=0;exitDy=0;entryX=0;entryY=0.5;entryDx=0;entryDy=0;" parent="1" source="86SzGhm7amYP-6trFhJ--52" target="86SzGhm7amYP-6trFhJ--52" edge="1">
          <mxGeometry relative="1" as="geometry">
            <Array as="points">
              <mxPoint x="-40" y="400" />
              <mxPoint x="-150" y="400" />
              <mxPoint x="-150" y="355" />
            </Array>
          </mxGeometry>
        </mxCell>
        <mxCell id="86SzGhm7amYP-6trFhJ--64" value="Yes" style="text;html=1;strokeColor=none;fillColor=none;align=center;verticalAlign=middle;whiteSpace=wrap;rounded=0;" parent="1" vertex="1">
          <mxGeometry x="-270" y="370" width="60" height="30" as="geometry" />
        </mxCell>
        <mxCell id="86SzGhm7amYP-6trFhJ--65" value="NO" style="text;html=1;strokeColor=none;fillColor=none;align=center;verticalAlign=middle;whiteSpace=wrap;rounded=0;" parent="1" vertex="1">
          <mxGeometry x="-210" y="330" width="60" height="30" as="geometry" />
        </mxCell>
        <mxCell id="86SzGhm7amYP-6trFhJ--66" value="Yes" style="text;html=1;strokeColor=none;fillColor=none;align=center;verticalAlign=middle;whiteSpace=wrap;rounded=0;" parent="1" vertex="1">
          <mxGeometry x="-90" y="370" width="60" height="30" as="geometry" />
        </mxCell>
        <mxCell id="86SzGhm7amYP-6trFhJ--68" value="END" style="strokeWidth=2;html=1;shape=mxgraph.flowchart.terminator;whiteSpace=wrap;" parent="1" vertex="1">
          <mxGeometry x="-310" y="650" width="100" height="60" as="geometry" />
        </mxCell>
        <mxCell id="86SzGhm7amYP-6trFhJ--69" value="NO" style="text;html=1;strokeColor=none;fillColor=none;align=center;verticalAlign=middle;whiteSpace=wrap;rounded=0;" parent="1" vertex="1">
          <mxGeometry x="30" y="330" width="60" height="30" as="geometry" />
        </mxCell>
        <mxCell id="86SzGhm7amYP-6trFhJ--70" value="NO" style="text;html=1;strokeColor=none;fillColor=none;align=center;verticalAlign=middle;whiteSpace=wrap;rounded=0;" parent="1" vertex="1">
          <mxGeometry x="240" y="250" width="60" height="30" as="geometry" />
        </mxCell>
        <mxCell id="86SzGhm7amYP-6trFhJ--71" value="Yes" style="text;html=1;strokeColor=none;fillColor=none;align=center;verticalAlign=middle;whiteSpace=wrap;rounded=0;" parent="1" vertex="1">
          <mxGeometry x="160" y="300" width="60" height="30" as="geometry" />
        </mxCell>
        <mxCell id="86SzGhm7amYP-6trFhJ--74" style="edgeStyle=orthogonalEdgeStyle;rounded=0;orthogonalLoop=1;jettySize=auto;html=1;exitX=0;exitY=0.5;exitDx=0;exitDy=0;entryX=0.5;entryY=0;entryDx=0;entryDy=0;entryPerimeter=0;" parent="1" source="86SzGhm7amYP-6trFhJ--73" target="86SzGhm7amYP-6trFhJ--26" edge="1">
          <mxGeometry relative="1" as="geometry" />
        </mxCell>
        <mxCell id="86SzGhm7amYP-6trFhJ--73" value="Control Mode&amp;nbsp; = manual" style="rounded=1;whiteSpace=wrap;html=1;" parent="1" vertex="1">
          <mxGeometry x="470" y="650" width="170" height="60" as="geometry" />
        </mxCell>
        <mxCell id="86SzGhm7amYP-6trFhJ--75" value="NO" style="text;html=1;strokeColor=none;fillColor=none;align=center;verticalAlign=middle;whiteSpace=wrap;rounded=0;" parent="1" vertex="1">
          <mxGeometry x="240" y="170" width="60" height="30" as="geometry" />
        </mxCell>
        <mxCell id="86SzGhm7amYP-6trFhJ--76" value="Yes" style="text;html=1;strokeColor=none;fillColor=none;align=center;verticalAlign=middle;whiteSpace=wrap;rounded=0;" parent="1" vertex="1">
          <mxGeometry x="160" y="220" width="60" height="30" as="geometry" />
        </mxCell>
        <mxCell id="86SzGhm7amYP-6trFhJ--77" value="NO" style="text;html=1;strokeColor=none;fillColor=none;align=center;verticalAlign=middle;whiteSpace=wrap;rounded=0;" parent="1" vertex="1">
          <mxGeometry x="550" y="230" width="60" height="30" as="geometry" />
        </mxCell>
        <mxCell id="86SzGhm7amYP-6trFhJ--78" value="Yes" style="text;html=1;strokeColor=none;fillColor=none;align=center;verticalAlign=middle;whiteSpace=wrap;rounded=0;" parent="1" vertex="1">
          <mxGeometry x="470" y="280" width="60" height="30" as="geometry" />
        </mxCell>
        <mxCell id="86SzGhm7amYP-6trFhJ--79" value="NO" style="text;html=1;strokeColor=none;fillColor=none;align=center;verticalAlign=middle;whiteSpace=wrap;rounded=0;" parent="1" vertex="1">
          <mxGeometry x="550" y="300" width="60" height="30" as="geometry" />
        </mxCell>
        <mxCell id="86SzGhm7amYP-6trFhJ--80" value="Yes" style="text;html=1;strokeColor=none;fillColor=none;align=center;verticalAlign=middle;whiteSpace=wrap;rounded=0;" parent="1" vertex="1">
          <mxGeometry x="470" y="350" width="60" height="30" as="geometry" />
        </mxCell>
        <mxCell id="86SzGhm7amYP-6trFhJ--81" value="NO" style="text;html=1;strokeColor=none;fillColor=none;align=center;verticalAlign=middle;whiteSpace=wrap;rounded=0;" parent="1" vertex="1">
          <mxGeometry x="550" y="470" width="60" height="30" as="geometry" />
        </mxCell>
        <mxCell id="86SzGhm7amYP-6trFhJ--82" value="Yes" style="text;html=1;strokeColor=none;fillColor=none;align=center;verticalAlign=middle;whiteSpace=wrap;rounded=0;" parent="1" vertex="1">
          <mxGeometry x="470" y="520" width="60" height="30" as="geometry" />
        </mxCell>
        <mxCell id="2QoRnlZiZxpGgpelAikD-3" value="" style="edgeStyle=orthogonalEdgeStyle;rounded=0;orthogonalLoop=1;jettySize=auto;html=1;" edge="1" parent="1" source="2QoRnlZiZxpGgpelAikD-1" target="2QoRnlZiZxpGgpelAikD-2">
          <mxGeometry relative="1" as="geometry" />
        </mxCell>
        <mxCell id="2QoRnlZiZxpGgpelAikD-1" value="Has New ROS Message" style="strokeWidth=2;html=1;shape=mxgraph.flowchart.terminator;whiteSpace=wrap;" vertex="1" parent="1">
          <mxGeometry x="1110" y="80" width="100" height="60" as="geometry" />
        </mxCell>
        <mxCell id="2QoRnlZiZxpGgpelAikD-5" style="edgeStyle=orthogonalEdgeStyle;rounded=0;orthogonalLoop=1;jettySize=auto;html=1;exitX=0.5;exitY=1;exitDx=0;exitDy=0;entryX=0.5;entryY=0;entryDx=0;entryDy=0;entryPerimeter=0;" edge="1" parent="1" source="2QoRnlZiZxpGgpelAikD-2" target="2QoRnlZiZxpGgpelAikD-4">
          <mxGeometry relative="1" as="geometry" />
        </mxCell>
        <mxCell id="2QoRnlZiZxpGgpelAikD-2" value="Update variable according to message" style="rounded=1;whiteSpace=wrap;html=1;" vertex="1" parent="1">
          <mxGeometry x="1100" y="220" width="120" height="60" as="geometry" />
        </mxCell>
        <mxCell id="2QoRnlZiZxpGgpelAikD-4" value="END" style="strokeWidth=2;html=1;shape=mxgraph.flowchart.terminator;whiteSpace=wrap;" vertex="1" parent="1">
          <mxGeometry x="1110" y="650" width="100" height="60" as="geometry" />
        </mxCell>
      </root>
    </mxGraphModel>
  </diagram>
</mxfile>
